<?xml version="1.0" encoding="utf-8"?>
<!-- Generator: Adobe Illustrator 26.1.0, SVG Export Plug-In . SVG Version: 6.00 Build 0)  -->
<svg version="1.1" id="Layer_1" xmlns="http://www.w3.org/2000/svg" xmlns:xlink="http://www.w3.org/1999/xlink" x="0px" y="0px"
	 viewBox="0 0 112.29 109.73" style="enable-background:new 0 0 112.29 109.73;" xml:space="preserve">
<style type="text/css">
	.st0{fill:url(#SVGID_1_);}
	.st1{fill-rule:evenodd;clip-rule:evenodd;fill:#FFFFFF;}
	.st2{fill:#FFFFFF;}
	.st3{fill:none;stroke:#ED288A;stroke-width:5.0544;stroke-miterlimit:10;}
	.st4{fill:#0E0E0E;}
	.st5{fill:none;stroke:#0E0E0E;stroke-width:5;stroke-linecap:round;stroke-linejoin:round;stroke-miterlimit:10;}
</style>
<g>
	<path class="st4" d="M109.79,109.73h-40c-1.38,0-2.5-1.12-2.5-2.5V83.75H45.19v23.48c0,1.38-1.12,2.5-2.5,2.5H2.5
		c-1.38,0-2.5-1.12-2.5-2.5V55.28c0-0.67,0.27-1.3,0.74-1.77L54.53,0c0.98-0.97,2.55-0.97,3.53,0l53.51,53.51
		c0.47,0.47,0.73,1.1,0.73,1.77v51.95C112.29,108.61,111.17,109.73,109.79,109.73z M72.29,104.73h35V56.31L56.28,5.3L5,56.32v48.41
		h35.19V81.25c0-1.38,1.12-2.5,2.5-2.5h27.11c1.38,0,2.5,1.12,2.5,2.5V104.73z"/>
</g>
</svg>
